# xmcd CD database file
#
# Track frame offsets:
#	150
#	34669
#	63971
#	90013
#	119462
#	148114
#	174826
#	205208
#
# Disc length: 3185 seconds
#
# Revision: 0
# Processed by: cddbd v1.5.2PL0 Copyright (c) Steve Scherf et al.
# Submitted via: CDex 1.51
#
DISCID=610c6f08
DTITLE=Dan Gibson - Nurture The Soul
DYEAR=2006
DGENRE=New Age
TTITLE0=A Calming Cadence
TTITLE1=Nature's Gift
TTITLE2=Resurfacing
TTITLE3=Soul Serenade
TTITLE4=Convergence
TTITLE5=Flowing With The Stream
TTITLE6=Vibrant Life
TTITLE7=The Journey
EXTD=YEAR: 2006
EXTT0=
EXTT1=
EXTT2=
EXTT3=
EXTT4=
EXTT5=
EXTT6=
EXTT7=
PLAYORDER=
